<mxfile host="app.diagrams.net" modified="2023-04-17T18:22:28.401Z" agent="Mozilla/5.0 (Windows NT 10.0; Win64; x64) AppleWebKit/537.36 (KHTML, like Gecko) Chrome/111.0.0.0 Safari/537.36" etag="cUluWCoW9WD_zBLCMEvR" version="21.1.8" type="device">
  <diagram name="Page-1" id="bCAl37fwIDvj_ZqM9r9M">
    <mxGraphModel dx="1434" dy="707" grid="1" gridSize="10" guides="1" tooltips="1" connect="1" arrows="1" fold="1" page="1" pageScale="1" pageWidth="850" pageHeight="1100" math="0" shadow="0">
      <root>
        <mxCell id="0" />
        <mxCell id="1" parent="0" />
        <mxCell id="_vuAa1aMIuxWL2abwS94-1" value="Ξεναγός" style="shape=umlActor;verticalLabelPosition=bottom;verticalAlign=top;html=1;outlineConnect=0;fontStyle=1;sketch=1;curveFitting=1;jiggle=2;" parent="1" vertex="1">
          <mxGeometry x="20" y="475" width="30" height="60" as="geometry" />
        </mxCell>
        <mxCell id="_vuAa1aMIuxWL2abwS94-5" value="Οθόνη αναρτημένων ξεναγήσεων" style="shape=umlBoundary;whiteSpace=wrap;html=1;fontStyle=1;sketch=1;curveFitting=1;jiggle=2;" parent="1" vertex="1">
          <mxGeometry x="328.94" y="90" width="100" height="80" as="geometry" />
        </mxCell>
        <mxCell id="_vuAa1aMIuxWL2abwS94-6" value="Εμφάνισε" style="ellipse;shape=umlControl;whiteSpace=wrap;html=1;fontStyle=1;sketch=1;curveFitting=1;jiggle=2;" parent="1" vertex="1">
          <mxGeometry x="515" y="10" width="70" height="80" as="geometry" />
        </mxCell>
        <mxCell id="_vuAa1aMIuxWL2abwS94-7" value="" style="endArrow=classic;html=1;rounded=0;exitX=0.5;exitY=0.5;exitDx=0;exitDy=0;exitPerimeter=0;entryX=-0.01;entryY=0.55;entryDx=0;entryDy=0;entryPerimeter=0;fontStyle=1;sketch=1;curveFitting=1;jiggle=2;" parent="1" source="_vuAa1aMIuxWL2abwS94-1" target="_vuAa1aMIuxWL2abwS94-5" edge="1">
          <mxGeometry width="50" height="50" relative="1" as="geometry">
            <mxPoint x="260" y="340" as="sourcePoint" />
            <mxPoint x="310" y="290" as="targetPoint" />
          </mxGeometry>
        </mxCell>
        <mxCell id="_vuAa1aMIuxWL2abwS94-8" value="&lt;font style=&quot;font-size: 12px;&quot;&gt;Επιλογή Δημιουργίας &lt;br&gt;Νέας Ξενάγησης&lt;/font&gt;" style="edgeLabel;html=1;align=center;verticalAlign=middle;resizable=0;points=[];fontStyle=1;sketch=1;curveFitting=1;jiggle=2;" parent="_vuAa1aMIuxWL2abwS94-7" vertex="1" connectable="0">
          <mxGeometry x="-0.2228" y="1" relative="1" as="geometry">
            <mxPoint x="-23" y="22" as="offset" />
          </mxGeometry>
        </mxCell>
        <mxCell id="_vuAa1aMIuxWL2abwS94-9" value="" style="endArrow=classic;html=1;rounded=0;exitX=-0.014;exitY=0.575;exitDx=0;exitDy=0;exitPerimeter=0;entryX=0.841;entryY=0.113;entryDx=0;entryDy=0;entryPerimeter=0;fontStyle=1;sketch=1;curveFitting=1;jiggle=2;" parent="1" source="_vuAa1aMIuxWL2abwS94-6" target="_vuAa1aMIuxWL2abwS94-5" edge="1">
          <mxGeometry width="50" height="50" relative="1" as="geometry">
            <mxPoint x="546.9500000000003" y="68" as="sourcePoint" />
            <mxPoint x="428.94" y="250" as="targetPoint" />
          </mxGeometry>
        </mxCell>
        <mxCell id="_vuAa1aMIuxWL2abwS94-10" value="Εμφάνισε" style="ellipse;shape=umlControl;whiteSpace=wrap;html=1;fontStyle=1;sketch=1;curveFitting=1;jiggle=2;" parent="1" vertex="1">
          <mxGeometry x="580" y="110" width="70" height="80" as="geometry" />
        </mxCell>
        <mxCell id="_vuAa1aMIuxWL2abwS94-11" value="Οθόνη συμπλήρωσης στοιχείων ξενάγησης" style="shape=umlBoundary;whiteSpace=wrap;html=1;fontStyle=1;sketch=1;curveFitting=1;jiggle=2;" parent="1" vertex="1">
          <mxGeometry x="396.44" y="190" width="100" height="80" as="geometry" />
        </mxCell>
        <mxCell id="_vuAa1aMIuxWL2abwS94-12" value="" style="endArrow=classic;html=1;rounded=0;entryX=-0.014;entryY=0.45;entryDx=0;entryDy=0;entryPerimeter=0;exitX=0.99;exitY=0.688;exitDx=0;exitDy=0;exitPerimeter=0;fontStyle=1;sketch=1;curveFitting=1;jiggle=2;" parent="1" source="_vuAa1aMIuxWL2abwS94-5" target="_vuAa1aMIuxWL2abwS94-10" edge="1">
          <mxGeometry width="50" height="50" relative="1" as="geometry">
            <mxPoint x="428.94" y="130" as="sourcePoint" />
            <mxPoint x="328.94" y="280" as="targetPoint" />
          </mxGeometry>
        </mxCell>
        <mxCell id="_vuAa1aMIuxWL2abwS94-13" value="" style="endArrow=classic;html=1;rounded=0;exitX=0;exitY=0.663;exitDx=0;exitDy=0;exitPerimeter=0;entryX=0.846;entryY=0.113;entryDx=0;entryDy=0;entryPerimeter=0;fontStyle=1;sketch=1;curveFitting=1;jiggle=2;" parent="1" source="_vuAa1aMIuxWL2abwS94-10" target="_vuAa1aMIuxWL2abwS94-11" edge="1">
          <mxGeometry width="50" height="50" relative="1" as="geometry">
            <mxPoint x="644.97" y="239.99999999999997" as="sourcePoint" />
            <mxPoint x="343.94" y="336.96" as="targetPoint" />
          </mxGeometry>
        </mxCell>
        <mxCell id="_vuAa1aMIuxWL2abwS94-14" value="" style="endArrow=classic;html=1;rounded=0;exitX=0.5;exitY=0.5;exitDx=0;exitDy=0;exitPerimeter=0;entryX=-0.01;entryY=0.5;entryDx=0;entryDy=0;entryPerimeter=0;fontStyle=1;sketch=1;curveFitting=1;jiggle=2;" parent="1" source="_vuAa1aMIuxWL2abwS94-1" target="_vuAa1aMIuxWL2abwS94-11" edge="1">
          <mxGeometry width="50" height="50" relative="1" as="geometry">
            <mxPoint x="260" y="330" as="sourcePoint" />
            <mxPoint x="310" y="280" as="targetPoint" />
          </mxGeometry>
        </mxCell>
        <mxCell id="_vuAa1aMIuxWL2abwS94-15" value="&lt;font style=&quot;font-size: 12px;&quot;&gt;Συμπλήρωση Στοιχείων&amp;nbsp;&lt;br&gt;Ξενάγησης&lt;br&gt;&lt;/font&gt;" style="edgeLabel;html=1;align=center;verticalAlign=middle;resizable=0;points=[];fontStyle=1;sketch=1;curveFitting=1;jiggle=2;" parent="_vuAa1aMIuxWL2abwS94-14" vertex="1" connectable="0">
          <mxGeometry x="0.32" y="1" relative="1" as="geometry">
            <mxPoint as="offset" />
          </mxGeometry>
        </mxCell>
        <mxCell id="_vuAa1aMIuxWL2abwS94-16" value="Εμφάνισε" style="ellipse;shape=umlControl;whiteSpace=wrap;html=1;fontStyle=1;sketch=1;curveFitting=1;jiggle=2;" parent="1" vertex="1">
          <mxGeometry x="638.94" y="230" width="70" height="80" as="geometry" />
        </mxCell>
        <mxCell id="_vuAa1aMIuxWL2abwS94-17" value="Μήνυμα επιλογής ετικετών/tags" style="shape=umlBoundary;whiteSpace=wrap;html=1;rounded=1;labelBackgroundColor=none;sketch=1;curveFitting=1;jiggle=2;fontStyle=1;labelBorderColor=none;" parent="1" vertex="1">
          <mxGeometry x="401.44" y="290" width="125" height="100" as="geometry" />
        </mxCell>
        <mxCell id="_vuAa1aMIuxWL2abwS94-18" value="" style="endArrow=classic;html=1;rounded=0;exitX=0.97;exitY=0.7;exitDx=0;exitDy=0;exitPerimeter=0;entryX=0.014;entryY=0.463;entryDx=0;entryDy=0;entryPerimeter=0;fontStyle=1;sketch=1;curveFitting=1;jiggle=2;" parent="1" source="_vuAa1aMIuxWL2abwS94-11" target="_vuAa1aMIuxWL2abwS94-16" edge="1">
          <mxGeometry width="50" height="50" relative="1" as="geometry">
            <mxPoint x="278.94" y="420" as="sourcePoint" />
            <mxPoint x="328.94" y="370" as="targetPoint" />
          </mxGeometry>
        </mxCell>
        <mxCell id="_vuAa1aMIuxWL2abwS94-19" value="" style="endArrow=classic;html=1;rounded=0;exitX=0.043;exitY=0.775;exitDx=0;exitDy=0;exitPerimeter=0;entryX=0.988;entryY=0.43;entryDx=0;entryDy=0;entryPerimeter=0;fontStyle=1;sketch=1;curveFitting=1;jiggle=2;" parent="1" source="_vuAa1aMIuxWL2abwS94-16" target="_vuAa1aMIuxWL2abwS94-17" edge="1">
          <mxGeometry width="50" height="50" relative="1" as="geometry">
            <mxPoint x="515.94" y="313" as="sourcePoint" />
            <mxPoint x="634.94" y="337" as="targetPoint" />
          </mxGeometry>
        </mxCell>
        <mxCell id="_vuAa1aMIuxWL2abwS94-21" value="" style="endArrow=classic;html=1;rounded=0;exitX=0.5;exitY=0.5;exitDx=0;exitDy=0;exitPerimeter=0;entryX=0.02;entryY=0.54;entryDx=0;entryDy=0;entryPerimeter=0;fontStyle=1;sketch=1;curveFitting=1;jiggle=2;" parent="1" source="_vuAa1aMIuxWL2abwS94-1" target="_vuAa1aMIuxWL2abwS94-17" edge="1">
          <mxGeometry width="50" height="50" relative="1" as="geometry">
            <mxPoint x="260" y="420" as="sourcePoint" />
            <mxPoint x="310" y="370" as="targetPoint" />
          </mxGeometry>
        </mxCell>
        <mxCell id="_vuAa1aMIuxWL2abwS94-22" value="&lt;font style=&quot;font-size: 12px;&quot;&gt;Επιλογή Ετικετών/Tags&lt;/font&gt;" style="edgeLabel;html=1;align=center;verticalAlign=middle;resizable=0;points=[];fontStyle=1;sketch=1;curveFitting=1;jiggle=2;" parent="_vuAa1aMIuxWL2abwS94-21" vertex="1" connectable="0">
          <mxGeometry x="0.1405" y="4" relative="1" as="geometry">
            <mxPoint as="offset" />
          </mxGeometry>
        </mxCell>
        <mxCell id="_vuAa1aMIuxWL2abwS94-23" value="Συμπλήρωση απαιτούμενων στοιχείων?" style="ellipse;shape=umlControl;whiteSpace=wrap;html=1;rounded=1;labelBackgroundColor=none;sketch=1;curveFitting=1;jiggle=2;fontStyle=1;labelBorderColor=none;" parent="1" vertex="1">
          <mxGeometry x="603.94" y="465" width="90" height="100" as="geometry" />
        </mxCell>
        <mxCell id="_vuAa1aMIuxWL2abwS94-24" value="" style="endArrow=classic;html=1;rounded=0;exitX=0.972;exitY=0.74;exitDx=0;exitDy=0;exitPerimeter=0;fontStyle=1;sketch=1;curveFitting=1;jiggle=2;entryX=0.067;entryY=0.329;entryDx=0;entryDy=0;entryPerimeter=0;" parent="1" source="_vuAa1aMIuxWL2abwS94-17" target="AZ5zpPVhn2oC35pCDIvC-1" edge="1">
          <mxGeometry width="50" height="50" relative="1" as="geometry">
            <mxPoint x="278.94" y="620" as="sourcePoint" />
            <mxPoint x="610" y="370" as="targetPoint" />
          </mxGeometry>
        </mxCell>
        <mxCell id="_vuAa1aMIuxWL2abwS94-25" value="Πεδίο για ανέβασμα εικόνων" style="shape=umlBoundary;whiteSpace=wrap;html=1;rounded=1;labelBackgroundColor=none;sketch=1;curveFitting=1;jiggle=2;fontStyle=1;labelBorderColor=none;" parent="1" vertex="1">
          <mxGeometry x="280" y="565" width="100" height="80" as="geometry" />
        </mxCell>
        <mxCell id="_vuAa1aMIuxWL2abwS94-26" value="Ενεργοποίησε" style="ellipse;shape=umlControl;whiteSpace=wrap;html=1;rounded=1;labelBackgroundColor=none;sketch=1;curveFitting=1;jiggle=2;fontStyle=1;labelBorderColor=none;" parent="1" vertex="1">
          <mxGeometry x="475" y="530" width="80" height="90" as="geometry" />
        </mxCell>
        <mxCell id="_vuAa1aMIuxWL2abwS94-27" value="" style="endArrow=classic;html=1;rounded=1;exitX=0.013;exitY=0.633;exitDx=0;exitDy=0;exitPerimeter=0;entryX=0.99;entryY=0.525;entryDx=0;entryDy=0;entryPerimeter=0;labelBackgroundColor=none;fontColor=default;sketch=1;curveFitting=1;jiggle=2;fontStyle=1;labelBorderColor=none;" parent="1" source="_vuAa1aMIuxWL2abwS94-26" target="_vuAa1aMIuxWL2abwS94-25" edge="1">
          <mxGeometry width="50" height="50" relative="1" as="geometry">
            <mxPoint x="443" y="627.02" as="sourcePoint" />
            <mxPoint x="365" y="485" as="targetPoint" />
          </mxGeometry>
        </mxCell>
        <mxCell id="_vuAa1aMIuxWL2abwS94-28" value="Μέγεθος αρχείων εντός ορίων?" style="ellipse;shape=umlControl;whiteSpace=wrap;html=1;rounded=1;labelBackgroundColor=none;sketch=1;curveFitting=1;jiggle=2;fontStyle=1;labelBorderColor=none;" parent="1" vertex="1">
          <mxGeometry x="190" y="705" width="80" height="90" as="geometry" />
        </mxCell>
        <mxCell id="_vuAa1aMIuxWL2abwS94-31" value="" style="endArrow=classic;html=1;rounded=1;labelBackgroundColor=none;fontColor=default;sketch=1;curveFitting=1;jiggle=2;fontStyle=1;labelBorderColor=none;entryX=0.018;entryY=0.364;entryDx=0;entryDy=0;entryPerimeter=0;exitX=0.825;exitY=0.889;exitDx=0;exitDy=0;exitPerimeter=0;" parent="1" source="_vuAa1aMIuxWL2abwS94-28" target="_vuAa1aMIuxWL2abwS94-40" edge="1">
          <mxGeometry width="50" height="50" relative="1" as="geometry">
            <mxPoint x="395" y="789" as="sourcePoint" />
            <mxPoint x="570" y="765" as="targetPoint" />
          </mxGeometry>
        </mxCell>
        <mxCell id="_vuAa1aMIuxWL2abwS94-78" value="&lt;font style=&quot;font-size: 12px;&quot;&gt;Ναι&lt;/font&gt;" style="edgeLabel;html=1;align=center;verticalAlign=middle;resizable=0;points=[];fontStyle=1;sketch=1;curveFitting=1;jiggle=2;" parent="_vuAa1aMIuxWL2abwS94-31" vertex="1" connectable="0">
          <mxGeometry x="-0.5145" y="1" relative="1" as="geometry">
            <mxPoint x="10" y="6" as="offset" />
          </mxGeometry>
        </mxCell>
        <mxCell id="_vuAa1aMIuxWL2abwS94-32" value="Εμφάνισε" style="ellipse;shape=umlControl;whiteSpace=wrap;html=1;rounded=1;labelBackgroundColor=none;sketch=1;curveFitting=1;jiggle=2;fontStyle=1;labelBorderColor=none;" parent="1" vertex="1">
          <mxGeometry x="750" y="475" width="70" height="80" as="geometry" />
        </mxCell>
        <mxCell id="_vuAa1aMIuxWL2abwS94-36" value="" style="endArrow=classic;html=1;rounded=0;exitX=0;exitY=0.69;exitDx=0;exitDy=0;exitPerimeter=0;fontStyle=1;sketch=1;curveFitting=1;jiggle=2;" parent="1" source="_vuAa1aMIuxWL2abwS94-23" target="_vuAa1aMIuxWL2abwS94-26" edge="1">
          <mxGeometry width="50" height="50" relative="1" as="geometry">
            <mxPoint x="278.94" y="520" as="sourcePoint" />
            <mxPoint x="328.94" y="470" as="targetPoint" />
          </mxGeometry>
        </mxCell>
        <mxCell id="_vuAa1aMIuxWL2abwS94-37" value="&lt;font style=&quot;font-size: 12px;&quot;&gt;Ναι&lt;/font&gt;" style="edgeLabel;html=1;align=center;verticalAlign=middle;resizable=0;points=[];fontStyle=1;sketch=1;curveFitting=1;jiggle=2;" parent="_vuAa1aMIuxWL2abwS94-36" vertex="1" connectable="0">
          <mxGeometry x="-0.547" y="-1" relative="1" as="geometry">
            <mxPoint x="-13" as="offset" />
          </mxGeometry>
        </mxCell>
        <mxCell id="_vuAa1aMIuxWL2abwS94-38" value="" style="endArrow=classic;html=1;rounded=0;exitX=0.5;exitY=0.5;exitDx=0;exitDy=0;exitPerimeter=0;entryX=-0.01;entryY=0.532;entryDx=0;entryDy=0;entryPerimeter=0;fontStyle=1;sketch=1;curveFitting=1;jiggle=2;" parent="1" source="_vuAa1aMIuxWL2abwS94-1" target="_vuAa1aMIuxWL2abwS94-25" edge="1">
          <mxGeometry width="50" height="50" relative="1" as="geometry">
            <mxPoint x="260" y="420" as="sourcePoint" />
            <mxPoint x="310" y="370" as="targetPoint" />
          </mxGeometry>
        </mxCell>
        <mxCell id="_vuAa1aMIuxWL2abwS94-39" value="&lt;font style=&quot;font-size: 12px;&quot;&gt;Ανέβασμα Εικόνων&lt;/font&gt;" style="edgeLabel;html=1;align=center;verticalAlign=middle;resizable=0;points=[];fontStyle=1;sketch=1;curveFitting=1;jiggle=2;" parent="_vuAa1aMIuxWL2abwS94-38" vertex="1" connectable="0">
          <mxGeometry x="0.1495" y="-1" relative="1" as="geometry">
            <mxPoint as="offset" />
          </mxGeometry>
        </mxCell>
        <mxCell id="_vuAa1aMIuxWL2abwS94-40" value="Εμφάνισε" style="ellipse;shape=umlControl;whiteSpace=wrap;html=1;fontStyle=1;sketch=1;curveFitting=1;jiggle=2;" parent="1" vertex="1">
          <mxGeometry x="426.44" y="780" width="70" height="80" as="geometry" />
        </mxCell>
        <mxCell id="_vuAa1aMIuxWL2abwS94-41" value="Οθόνη Εισαγωγής Τρόπου Πληρωμής" style="shape=umlBoundary;whiteSpace=wrap;html=1;fontStyle=1;sketch=1;curveFitting=1;jiggle=2;" parent="1" vertex="1">
          <mxGeometry x="210" y="875" width="100" height="80" as="geometry" />
        </mxCell>
        <mxCell id="_vuAa1aMIuxWL2abwS94-42" value="" style="endArrow=classic;html=1;rounded=0;exitX=0.15;exitY=0.884;exitDx=0;exitDy=0;exitPerimeter=0;entryX=1;entryY=0.488;entryDx=0;entryDy=0;entryPerimeter=0;fontStyle=1;sketch=1;curveFitting=1;jiggle=2;" parent="1" source="_vuAa1aMIuxWL2abwS94-40" target="_vuAa1aMIuxWL2abwS94-41" edge="1">
          <mxGeometry width="50" height="50" relative="1" as="geometry">
            <mxPoint x="635" y="865" as="sourcePoint" />
            <mxPoint x="330" y="835" as="targetPoint" />
          </mxGeometry>
        </mxCell>
        <mxCell id="_vuAa1aMIuxWL2abwS94-43" value="&lt;font style=&quot;font-size: 12px;&quot;&gt;Εισαγωγή Τραπεζικών Στοιχείων&lt;/font&gt;" style="endArrow=classic;html=1;rounded=0;exitX=0.5;exitY=0.5;exitDx=0;exitDy=0;exitPerimeter=0;entryX=-0.04;entryY=0.55;entryDx=0;entryDy=0;entryPerimeter=0;fontStyle=1;sketch=1;curveFitting=1;jiggle=2;" parent="1" source="_vuAa1aMIuxWL2abwS94-1" target="_vuAa1aMIuxWL2abwS94-41" edge="1">
          <mxGeometry x="-0.3067" y="3" width="50" height="50" relative="1" as="geometry">
            <mxPoint x="260" y="630" as="sourcePoint" />
            <mxPoint x="310" y="580" as="targetPoint" />
            <mxPoint as="offset" />
          </mxGeometry>
        </mxCell>
        <mxCell id="_vuAa1aMIuxWL2abwS94-45" value="Στοιχεία Πληρωμής Έγκυρα?" style="ellipse;shape=umlControl;whiteSpace=wrap;html=1;fontStyle=1;sketch=1;curveFitting=1;jiggle=2;" parent="1" vertex="1">
          <mxGeometry x="396.44" y="930" width="92.5" height="100" as="geometry" />
        </mxCell>
        <mxCell id="_vuAa1aMIuxWL2abwS94-46" value="" style="endArrow=classic;html=1;rounded=0;exitX=0.93;exitY=0.838;exitDx=0;exitDy=0;exitPerimeter=0;entryX=0.225;entryY=0.158;entryDx=0;entryDy=0;entryPerimeter=0;fontStyle=1;sketch=1;curveFitting=1;jiggle=2;" parent="1" source="_vuAa1aMIuxWL2abwS94-41" target="_vuAa1aMIuxWL2abwS94-45" edge="1">
          <mxGeometry width="50" height="50" relative="1" as="geometry">
            <mxPoint x="410" y="1005" as="sourcePoint" />
            <mxPoint x="460" y="955" as="targetPoint" />
          </mxGeometry>
        </mxCell>
        <mxCell id="_vuAa1aMIuxWL2abwS94-47" value="Δημιουργία &lt;br&gt;+&lt;br&gt;&amp;nbsp;Ανάρτηση" style="ellipse;shape=umlControl;whiteSpace=wrap;html=1;fontStyle=1;sketch=1;curveFitting=1;jiggle=2;" parent="1" vertex="1">
          <mxGeometry x="540" y="900" width="80" height="90" as="geometry" />
        </mxCell>
        <mxCell id="_vuAa1aMIuxWL2abwS94-48" value="" style="endArrow=classic;html=1;rounded=0;exitX=0.909;exitY=0.315;exitDx=0;exitDy=0;exitPerimeter=0;fontStyle=1;sketch=1;curveFitting=1;jiggle=2;" parent="1" source="_vuAa1aMIuxWL2abwS94-45" target="_vuAa1aMIuxWL2abwS94-47" edge="1">
          <mxGeometry width="50" height="50" relative="1" as="geometry">
            <mxPoint x="370" y="1025" as="sourcePoint" />
            <mxPoint x="420" y="975" as="targetPoint" />
          </mxGeometry>
        </mxCell>
        <mxCell id="_vuAa1aMIuxWL2abwS94-59" value="&lt;font style=&quot;font-size: 12px;&quot;&gt;Ναι&lt;/font&gt;" style="edgeLabel;html=1;align=center;verticalAlign=middle;resizable=0;points=[];fontStyle=1;sketch=1;curveFitting=1;jiggle=2;" parent="_vuAa1aMIuxWL2abwS94-48" vertex="1" connectable="0">
          <mxGeometry x="-0.187" y="3" relative="1" as="geometry">
            <mxPoint as="offset" />
          </mxGeometry>
        </mxCell>
        <mxCell id="_vuAa1aMIuxWL2abwS94-49" value="Ξενάγηση" style="ellipse;shape=umlEntity;whiteSpace=wrap;html=1;fontFamily=Helvetica;fontSize=11;fontColor=default;fontStyle=1;sketch=1;curveFitting=1;jiggle=2;" parent="1" vertex="1">
          <mxGeometry x="580" y="780" width="80" height="80" as="geometry" />
        </mxCell>
        <mxCell id="_vuAa1aMIuxWL2abwS94-50" value="" style="endArrow=classic;html=1;rounded=0;exitX=0.713;exitY=0.156;exitDx=0;exitDy=0;exitPerimeter=0;entryX=0.5;entryY=1;entryDx=0;entryDy=0;fontStyle=1;sketch=1;curveFitting=1;jiggle=2;" parent="1" source="_vuAa1aMIuxWL2abwS94-47" target="_vuAa1aMIuxWL2abwS94-49" edge="1">
          <mxGeometry width="50" height="50" relative="1" as="geometry">
            <mxPoint x="370" y="1005" as="sourcePoint" />
            <mxPoint x="420" y="955" as="targetPoint" />
          </mxGeometry>
        </mxCell>
        <mxCell id="_vuAa1aMIuxWL2abwS94-51" value="Εμφάνισε" style="ellipse;shape=umlControl;whiteSpace=wrap;html=1;rounded=1;labelBackgroundColor=none;sketch=1;curveFitting=1;jiggle=2;fontStyle=1;labelBorderColor=none;" parent="1" vertex="1">
          <mxGeometry x="730" y="715" width="70" height="80" as="geometry" />
        </mxCell>
        <mxCell id="_vuAa1aMIuxWL2abwS94-52" value="Μήνυμα Επιτυχίας" style="shape=umlBoundary;whiteSpace=wrap;html=1;fontStyle=1;sketch=1;curveFitting=1;jiggle=2;" parent="1" vertex="1">
          <mxGeometry x="720" y="860" width="100" height="80" as="geometry" />
        </mxCell>
        <mxCell id="_vuAa1aMIuxWL2abwS94-53" value="Εμφάνισε" style="ellipse;shape=umlControl;whiteSpace=wrap;html=1;rounded=1;labelBackgroundColor=none;sketch=1;curveFitting=1;jiggle=2;fontStyle=1;labelBorderColor=none;" parent="1" vertex="1">
          <mxGeometry x="743.94" y="990" width="70" height="80" as="geometry" />
        </mxCell>
        <mxCell id="_vuAa1aMIuxWL2abwS94-54" value="Οθόνη Αναρτημένων Ξεναγήσεων" style="shape=umlBoundary;whiteSpace=wrap;html=1;fontStyle=1;sketch=1;curveFitting=1;jiggle=2;" parent="1" vertex="1">
          <mxGeometry x="608.94" y="1005" width="100" height="80" as="geometry" />
        </mxCell>
        <mxCell id="_vuAa1aMIuxWL2abwS94-55" value="" style="endArrow=classic;html=1;rounded=0;entryX=-0.029;entryY=0.65;entryDx=0;entryDy=0;entryPerimeter=0;exitX=1;exitY=0.3;exitDx=0;exitDy=0;fontStyle=1;sketch=1;curveFitting=1;jiggle=2;exitPerimeter=0;" parent="1" source="_vuAa1aMIuxWL2abwS94-49" target="_vuAa1aMIuxWL2abwS94-51" edge="1">
          <mxGeometry width="50" height="50" relative="1" as="geometry">
            <mxPoint x="777" y="978" as="sourcePoint" />
            <mxPoint x="420" y="1065" as="targetPoint" />
          </mxGeometry>
        </mxCell>
        <mxCell id="_vuAa1aMIuxWL2abwS94-56" value="" style="endArrow=classic;html=1;rounded=0;fontStyle=1;sketch=1;curveFitting=1;jiggle=2;" parent="1" source="_vuAa1aMIuxWL2abwS94-51" target="_vuAa1aMIuxWL2abwS94-52" edge="1">
          <mxGeometry width="50" height="50" relative="1" as="geometry">
            <mxPoint x="335" y="1115" as="sourcePoint" />
            <mxPoint x="385" y="1065" as="targetPoint" />
          </mxGeometry>
        </mxCell>
        <mxCell id="_vuAa1aMIuxWL2abwS94-57" value="" style="endArrow=classic;html=1;rounded=0;entryX=0.714;entryY=0.125;entryDx=0;entryDy=0;entryPerimeter=0;fontStyle=1;sketch=1;curveFitting=1;jiggle=2;" parent="1" source="_vuAa1aMIuxWL2abwS94-52" target="_vuAa1aMIuxWL2abwS94-53" edge="1">
          <mxGeometry width="50" height="50" relative="1" as="geometry">
            <mxPoint x="755" y="1069" as="sourcePoint" />
            <mxPoint x="699" y="1077" as="targetPoint" />
          </mxGeometry>
        </mxCell>
        <mxCell id="_vuAa1aMIuxWL2abwS94-58" value="" style="endArrow=classic;html=1;rounded=0;entryX=0.99;entryY=0.475;entryDx=0;entryDy=0;entryPerimeter=0;fontStyle=1;sketch=1;curveFitting=1;jiggle=2;exitX=-0.013;exitY=0.6;exitDx=0;exitDy=0;exitPerimeter=0;" parent="1" source="_vuAa1aMIuxWL2abwS94-53" target="_vuAa1aMIuxWL2abwS94-54" edge="1">
          <mxGeometry width="50" height="50" relative="1" as="geometry">
            <mxPoint x="740" y="1040" as="sourcePoint" />
            <mxPoint x="545" y="1125" as="targetPoint" />
          </mxGeometry>
        </mxCell>
        <mxCell id="_vuAa1aMIuxWL2abwS94-61" value="" style="endArrow=classic;html=1;rounded=0;exitX=1.033;exitY=0.57;exitDx=0;exitDy=0;exitPerimeter=0;entryX=0;entryY=0.575;entryDx=0;entryDy=0;entryPerimeter=0;fontStyle=1;sketch=1;curveFitting=1;jiggle=2;strokeWidth=2;strokeColor=#FF0000;" parent="1" source="_vuAa1aMIuxWL2abwS94-23" target="_vuAa1aMIuxWL2abwS94-32" edge="1">
          <mxGeometry width="50" height="50" relative="1" as="geometry">
            <mxPoint x="388.94" y="430" as="sourcePoint" />
            <mxPoint x="438.94" y="380" as="targetPoint" />
          </mxGeometry>
        </mxCell>
        <mxCell id="_vuAa1aMIuxWL2abwS94-66" value="&lt;font style=&quot;font-size: 12px;&quot;&gt;Όχι&lt;/font&gt;" style="edgeLabel;html=1;align=center;verticalAlign=middle;resizable=0;points=[];fontStyle=1;sketch=1;curveFitting=1;jiggle=2;" parent="_vuAa1aMIuxWL2abwS94-61" vertex="1" connectable="0">
          <mxGeometry x="-0.4736" y="-3" relative="1" as="geometry">
            <mxPoint x="10" y="-2" as="offset" />
          </mxGeometry>
        </mxCell>
        <mxCell id="_vuAa1aMIuxWL2abwS94-67" style="edgeStyle=orthogonalEdgeStyle;rounded=0;orthogonalLoop=1;jettySize=auto;html=1;entryX=0.978;entryY=0.345;entryDx=0;entryDy=0;entryPerimeter=0;exitX=0.628;exitY=-0.008;exitDx=0;exitDy=0;exitPerimeter=0;fontStyle=1;sketch=1;curveFitting=1;jiggle=2;strokeWidth=2;strokeColor=#FF0000;" parent="1" source="_vuAa1aMIuxWL2abwS94-64" target="_vuAa1aMIuxWL2abwS94-11" edge="1">
          <mxGeometry relative="1" as="geometry">
            <Array as="points">
              <mxPoint x="770" y="339" />
              <mxPoint x="770" y="218" />
            </Array>
          </mxGeometry>
        </mxCell>
        <mxCell id="_vuAa1aMIuxWL2abwS94-64" value="Μήνυμα Αποτυχίας, Υπογράμμιση Ελλείψεων" style="shape=umlBoundary;whiteSpace=wrap;html=1;rounded=1;labelBackgroundColor=none;sketch=1;curveFitting=1;jiggle=2;fontStyle=1;labelBorderColor=none;" parent="1" vertex="1">
          <mxGeometry x="715" y="340" width="100" height="80" as="geometry" />
        </mxCell>
        <mxCell id="_vuAa1aMIuxWL2abwS94-65" value="" style="endArrow=classic;html=1;rounded=0;exitX=0.629;exitY=0.125;exitDx=0;exitDy=0;exitPerimeter=0;entryX=0.703;entryY=1;entryDx=0;entryDy=0;entryPerimeter=0;fontStyle=1;sketch=1;curveFitting=1;jiggle=2;strokeWidth=2;strokeColor=#FF0000;" parent="1" source="_vuAa1aMIuxWL2abwS94-32" target="_vuAa1aMIuxWL2abwS94-64" edge="1">
          <mxGeometry width="50" height="50" relative="1" as="geometry">
            <mxPoint x="388.94" y="540" as="sourcePoint" />
            <mxPoint x="438.94" y="490" as="targetPoint" />
          </mxGeometry>
        </mxCell>
        <mxCell id="_vuAa1aMIuxWL2abwS94-68" value="" style="endArrow=classic;html=1;rounded=0;entryX=0.473;entryY=0.159;entryDx=0;entryDy=0;entryPerimeter=0;fontStyle=1;sketch=1;curveFitting=1;jiggle=2;exitX=0.5;exitY=0.988;exitDx=0;exitDy=0;exitPerimeter=0;" parent="1" source="_vuAa1aMIuxWL2abwS94-25" target="_vuAa1aMIuxWL2abwS94-28" edge="1">
          <mxGeometry width="50" height="50" relative="1" as="geometry">
            <mxPoint x="340" y="645" as="sourcePoint" />
            <mxPoint x="290" y="615" as="targetPoint" />
          </mxGeometry>
        </mxCell>
        <mxCell id="_vuAa1aMIuxWL2abwS94-69" value="Εμφάνισε" style="ellipse;shape=umlControl;whiteSpace=wrap;html=1;fontStyle=1;sketch=1;curveFitting=1;jiggle=2;" parent="1" vertex="1">
          <mxGeometry x="365" y="680" width="75" height="80" as="geometry" />
        </mxCell>
        <mxCell id="_vuAa1aMIuxWL2abwS94-72" value="" style="endArrow=classic;html=1;rounded=0;exitX=0.925;exitY=0.3;exitDx=0;exitDy=0;exitPerimeter=0;fontStyle=1;sketch=1;curveFitting=1;jiggle=2;strokeWidth=2;strokeColor=#FF0000;entryX=-0.013;entryY=0.588;entryDx=0;entryDy=0;entryPerimeter=0;" parent="1" source="_vuAa1aMIuxWL2abwS94-28" target="_vuAa1aMIuxWL2abwS94-69" edge="1">
          <mxGeometry width="50" height="50" relative="1" as="geometry">
            <mxPoint x="413" y="649" as="sourcePoint" />
            <mxPoint x="370" y="710" as="targetPoint" />
          </mxGeometry>
        </mxCell>
        <mxCell id="_vuAa1aMIuxWL2abwS94-73" value="&lt;font style=&quot;font-size: 12px;&quot;&gt;Όχι&lt;/font&gt;" style="edgeLabel;html=1;align=center;verticalAlign=middle;resizable=0;points=[];fontStyle=1;sketch=1;curveFitting=1;jiggle=2;" parent="_vuAa1aMIuxWL2abwS94-72" vertex="1" connectable="0">
          <mxGeometry x="0.3188" y="4" relative="1" as="geometry">
            <mxPoint x="-17" y="3" as="offset" />
          </mxGeometry>
        </mxCell>
        <mxCell id="_vuAa1aMIuxWL2abwS94-74" value="" style="endArrow=classic;html=1;rounded=0;entryX=-0.008;entryY=0.56;entryDx=0;entryDy=0;entryPerimeter=0;fontStyle=1;sketch=1;curveFitting=1;jiggle=2;strokeWidth=2;strokeColor=#FF0000;" parent="1" source="_vuAa1aMIuxWL2abwS94-69" target="_vuAa1aMIuxWL2abwS94-79" edge="1">
          <mxGeometry width="50" height="50" relative="1" as="geometry">
            <mxPoint x="240" y="805" as="sourcePoint" />
            <mxPoint x="570" y="725" as="targetPoint" />
          </mxGeometry>
        </mxCell>
        <mxCell id="_vuAa1aMIuxWL2abwS94-79" value="Μήνυμα Υπέρβασης Ορίου Μεγέθους Αρχείων" style="shape=umlBoundary;whiteSpace=wrap;html=1;rounded=1;labelBackgroundColor=none;sketch=1;curveFitting=1;jiggle=2;fontStyle=1;labelBorderColor=none;" parent="1" vertex="1">
          <mxGeometry x="520" y="645" width="120" height="100" as="geometry" />
        </mxCell>
        <mxCell id="_vuAa1aMIuxWL2abwS94-80" value="" style="endArrow=classic;html=1;rounded=0;entryX=0.952;entryY=0.812;entryDx=0;entryDy=0;entryPerimeter=0;exitX=0.25;exitY=0.2;exitDx=0;exitDy=0;exitPerimeter=0;fontStyle=1;sketch=1;curveFitting=1;jiggle=2;strokeWidth=2;strokeColor=#FF0000;" parent="1" source="_vuAa1aMIuxWL2abwS94-79" target="_vuAa1aMIuxWL2abwS94-25" edge="1">
          <mxGeometry width="50" height="50" relative="1" as="geometry">
            <mxPoint x="30" y="1085" as="sourcePoint" />
            <mxPoint x="157" y="935" as="targetPoint" />
          </mxGeometry>
        </mxCell>
        <mxCell id="_vuAa1aMIuxWL2abwS94-83" value="Εμφάνισε" style="ellipse;shape=umlControl;whiteSpace=wrap;html=1;fontStyle=1;sketch=1;curveFitting=1;jiggle=2;" parent="1" vertex="1">
          <mxGeometry x="235" y="995" width="75" height="80" as="geometry" />
        </mxCell>
        <mxCell id="_vuAa1aMIuxWL2abwS94-85" value="Μήνυμα Αποτυχίας Επαλήθευσης Στοιχείων ΠΛηρωμής" style="shape=umlBoundary;whiteSpace=wrap;html=1;rounded=1;labelBackgroundColor=none;sketch=1;curveFitting=1;jiggle=2;fontStyle=1;labelBorderColor=none;" parent="1" vertex="1">
          <mxGeometry x="80.00000000000006" y="940" width="120" height="100" as="geometry" />
        </mxCell>
        <mxCell id="_vuAa1aMIuxWL2abwS94-86" value="" style="endArrow=classic;html=1;rounded=0;exitX=0.212;exitY=0.943;exitDx=0;exitDy=0;exitPerimeter=0;fontStyle=1;sketch=1;curveFitting=1;jiggle=2;strokeWidth=2;strokeColor=#FF0000;" parent="1" source="_vuAa1aMIuxWL2abwS94-45" target="_vuAa1aMIuxWL2abwS94-83" edge="1">
          <mxGeometry width="50" height="50" relative="1" as="geometry">
            <mxPoint x="31.060000000000002" y="815" as="sourcePoint" />
            <mxPoint x="81.06" y="765" as="targetPoint" />
          </mxGeometry>
        </mxCell>
        <mxCell id="_vuAa1aMIuxWL2abwS94-87" value="&lt;span style=&quot;font-size: 12px;&quot;&gt;Όχι&lt;/span&gt;" style="edgeLabel;html=1;align=center;verticalAlign=middle;resizable=0;points=[];fontStyle=1;sketch=1;curveFitting=1;jiggle=2;" parent="_vuAa1aMIuxWL2abwS94-86" vertex="1" connectable="0">
          <mxGeometry x="-0.4261" y="1" relative="1" as="geometry">
            <mxPoint x="-5" y="3" as="offset" />
          </mxGeometry>
        </mxCell>
        <mxCell id="_vuAa1aMIuxWL2abwS94-88" value="" style="endArrow=classic;html=1;rounded=0;exitX=0.008;exitY=0.552;exitDx=0;exitDy=0;exitPerimeter=0;entryX=0.983;entryY=0.79;entryDx=0;entryDy=0;entryPerimeter=0;fontStyle=1;sketch=1;curveFitting=1;jiggle=2;strokeWidth=2;strokeColor=#FF0000;" parent="1" source="_vuAa1aMIuxWL2abwS94-83" target="_vuAa1aMIuxWL2abwS94-85" edge="1">
          <mxGeometry width="50" height="50" relative="1" as="geometry">
            <mxPoint x="221.06" y="975" as="sourcePoint" />
            <mxPoint x="271.06" y="925" as="targetPoint" />
          </mxGeometry>
        </mxCell>
        <mxCell id="_vuAa1aMIuxWL2abwS94-89" value="" style="endArrow=classic;html=1;rounded=0;exitX=0.896;exitY=0.149;exitDx=0;exitDy=0;exitPerimeter=0;entryX=0.228;entryY=0.769;entryDx=0;entryDy=0;entryPerimeter=0;fontStyle=1;sketch=1;curveFitting=1;jiggle=2;strokeWidth=2;strokeColor=#FF0000;" parent="1" source="_vuAa1aMIuxWL2abwS94-85" target="_vuAa1aMIuxWL2abwS94-41" edge="1">
          <mxGeometry width="50" height="50" relative="1" as="geometry">
            <mxPoint x="221.06" y="975" as="sourcePoint" />
            <mxPoint x="271.06" y="925" as="targetPoint" />
          </mxGeometry>
        </mxCell>
        <mxCell id="AZ5zpPVhn2oC35pCDIvC-1" value="Εφάρμοσε" style="ellipse;shape=umlControl;whiteSpace=wrap;html=1;rounded=1;labelBackgroundColor=none;sketch=1;curveFitting=1;jiggle=2;fontStyle=1;labelBorderColor=none;" parent="1" vertex="1">
          <mxGeometry x="560" y="370" width="60" height="70" as="geometry" />
        </mxCell>
        <mxCell id="AZ5zpPVhn2oC35pCDIvC-2" value="&lt;font style=&quot;font-size: 12px;&quot;&gt;Ετικέτες/Tags&lt;/font&gt;" style="ellipse;shape=umlEntity;whiteSpace=wrap;html=1;fontFamily=Helvetica;fontSize=11;rounded=1;labelBackgroundColor=none;sketch=1;curveFitting=1;jiggle=2;fontStyle=1;labelBorderColor=none;" parent="1" vertex="1">
          <mxGeometry x="321.44" y="430" width="80" height="80" as="geometry" />
        </mxCell>
        <mxCell id="AZ5zpPVhn2oC35pCDIvC-3" value="" style="endArrow=classic;html=1;rounded=0;sketch=1;hachureGap=4;jiggle=2;curveFitting=1;fontFamily=Architects Daughter;fontSource=https%3A%2F%2Ffonts.googleapis.com%2Fcss%3Ffamily%3DArchitects%2BDaughter;fontSize=16;exitX=0.017;exitY=0.7;exitDx=0;exitDy=0;exitPerimeter=0;entryX=0.938;entryY=0.275;entryDx=0;entryDy=0;entryPerimeter=0;fontStyle=1" parent="1" source="AZ5zpPVhn2oC35pCDIvC-1" target="AZ5zpPVhn2oC35pCDIvC-2" edge="1">
          <mxGeometry width="50" height="50" relative="1" as="geometry">
            <mxPoint x="400" y="550" as="sourcePoint" />
            <mxPoint x="450" y="500" as="targetPoint" />
          </mxGeometry>
        </mxCell>
        <mxCell id="AZ5zpPVhn2oC35pCDIvC-4" value="" style="endArrow=classic;html=1;rounded=0;sketch=1;hachureGap=4;jiggle=2;curveFitting=1;fontFamily=Architects Daughter;fontSource=https%3A%2F%2Ffonts.googleapis.com%2Fcss%3Ffamily%3DArchitects%2BDaughter;fontSize=16;exitX=1;exitY=0.5;exitDx=0;exitDy=0;entryX=0.089;entryY=0.27;entryDx=0;entryDy=0;entryPerimeter=0;fontStyle=1" parent="1" source="AZ5zpPVhn2oC35pCDIvC-2" target="_vuAa1aMIuxWL2abwS94-23" edge="1">
          <mxGeometry width="50" height="50" relative="1" as="geometry">
            <mxPoint x="400" y="550" as="sourcePoint" />
            <mxPoint x="450" y="500" as="targetPoint" />
          </mxGeometry>
        </mxCell>
      </root>
    </mxGraphModel>
  </diagram>
</mxfile>
